<?xml version="1.0" encoding="UTF-8"?>
<svg xmlns="http://www.w3.org/2000/svg" xmlns:xlink="http://www.w3.org/1999/xlink" version="1.1" x="0px" y="0px" viewBox="0 0 24 30" enable-background="new 0 0 24 24" xml:space="preserve">
  <g>
    <circle cx="12" cy="4" r="2"/>
    <path d="M9,11h6c0.6,0,1-0.4,1-1V9.5C16,8.1,14.9,7,13.5,7h-3C9.1,7,8,8.1,8,9.5V10C8,10.6,8.4,11,9,11z"/>
    <circle cx="6" cy="15" r="2"/>
    <path d="M7.5,18h-3C3.1,18,2,19.1,2,20.5V21c0,0.6,0.4,1,1,1h6c0.6,0,1-0.4,1-1v-0.5C10,19.1,8.9,18,7.5,18z"/>
    <circle cx="18" cy="15" r="2"/>
    <path d="M19.5,18h-3c-1.4,0-2.5,1.1-2.5,2.5V21c0,0.6,0.4,1,1,1h6c0.6,0,1-0.4,1-1v-0.5C22,19.1,20.9,18,19.5,18z"/>
    <polygon points="15.2,15.7 13,14.4 13,12 11,12 11,14.4 8.8,15.7 9.8,17.4 12,16.2 14.2,17.4  "/>
  </g>
</svg>
