<?xml version="1.0" encoding="utf-8"?>
<!-- Generator: Adobe Illustrator 16.0.0, SVG Export Plug-In . SVG Version: 6.00 Build 0)  -->
<!DOCTYPE svg PUBLIC "-//W3C//DTD SVG 1.1//EN" "http://www.w3.org/Graphics/SVG/1.1/DTD/svg11.dtd">
<svg version="1.1" xmlns="http://www.w3.org/2000/svg" xmlns:xlink="http://www.w3.org/1999/xlink" x="0px" y="0px" width="1200px"
	 height="800px" viewBox="0 0 1200 800" enable-background="new 0 0 1200 800" xml:space="preserve">
<g id="background">
	
		<radialGradient id="SVGID_1_" cx="600" cy="400" r="400" gradientTransform="matrix(1.5 0 0 1 -300 0)" gradientUnits="userSpaceOnUse">
		<stop  offset="0.335" style="stop-color:#FFFFFF"/>
		<stop  offset="1" style="stop-color:#C3C3C2"/>
	</radialGradient>
	<rect opacity="0.6" fill="url(#SVGID_1_)" width="1200" height="800"/>
	<g>
		<defs>
			<rect id="SVGID_2_" width="1200" height="800"/>
		</defs>
		<clipPath id="SVGID_3_">
			<use xlink:href="#SVGID_2_"  overflow="visible"/>
		</clipPath>
		<g clip-path="url(#SVGID_3_)">
			<polygon fill="#46ABA4" points="1158.992,47.051 1118.245,23.526 1158.992,0.001 			"/>
			<polygon fill="#46ABA4" points="1158.992,94.102 1118.245,70.577 1158.992,47.052 			"/>
			<polygon fill="#6CBAD4" points="1158.992,141.153 1118.245,117.628 1158.992,94.103 			"/>
			<polygon fill="#6CBAD4" points="1158.992,188.204 1118.245,164.679 1158.992,141.153 			"/>
			<polygon fill="#6795C1" points="1158.992,235.254 1118.245,211.729 1158.992,188.205 			"/>
			<polygon fill="#46ABA4" points="1158.992,282.305 1118.245,258.78 1158.992,235.255 			"/>
			<polygon fill="#46ABA4" points="1158.992,329.355 1118.245,305.831 1158.992,282.306 			"/>
			<polygon fill="#46ABA4" points="1158.992,376.406 1118.245,352.882 1158.992,329.356 			"/>
			<polygon fill="#6CBAD4" points="1158.992,423.457 1118.245,399.933 1158.992,376.407 			"/>
			<polygon fill="#6795C1" points="1158.992,470.509 1118.245,446.983 1158.992,423.458 			"/>
			<polygon fill="#6CBAD4" points="1158.992,517.56 1118.245,494.034 1158.992,470.51 			"/>
			<polygon fill="#6CBAD4" points="1158.992,564.61 1118.245,541.085 1158.992,517.561 			"/>
			<polygon fill="#46ABA4" points="1158.992,611.661 1118.245,588.136 1158.992,564.611 			"/>
			<polygon fill="#46ABA4" points="1158.992,658.711 1118.245,635.187 1158.992,611.662 			"/>
			<polygon fill="#6795C1" points="1158.992,705.763 1118.245,682.237 1158.992,658.712 			"/>
			<polygon fill="#6CBAD4" points="1158.992,752.813 1118.245,729.288 1158.992,705.764 			"/>
			<polygon fill="#6CBAD4" points="1158.992,799.864 1118.245,776.339 1158.992,752.814 			"/>
			<polygon fill="#6795C1" points="1118.245,-23.526 1158.992,-0.001 1118.245,23.523 			"/>
			<polygon fill="#46ABA4" points="1118.245,23.524 1077.498,0 1118.245,-23.525 			"/>
			<polygon fill="#6795C1" points="1118.245,23.524 1158.992,47.05 1118.245,70.574 			"/>
			<polygon fill="#46ABA4" points="1118.245,70.575 1077.498,47.051 1118.245,23.525 			"/>
			<polygon fill="#6795C1" points="1118.245,70.575 1158.992,94.101 1118.245,117.626 			"/>
			<polygon fill="#6CBAD4" points="1118.245,117.627 1077.498,94.102 1118.245,70.576 			"/>
			<polygon fill="#6795C1" points="1118.245,117.627 1158.992,141.151 1118.245,164.677 			"/>
			<polygon fill="#6CBAD4" points="1118.245,164.678 1077.498,141.152 1118.245,117.627 			"/>
			<polygon fill="#46ABA4" points="1118.245,164.678 1158.992,188.202 1118.245,211.727 			"/>
			<polygon fill="#6795C1" points="1118.245,211.728 1077.498,188.203 1118.245,164.679 			"/>
			<polygon fill="#6CBAD4" points="1118.245,211.728 1158.992,235.253 1118.245,258.777 			"/>
			<polygon fill="#6795C1" points="1118.245,258.778 1077.498,235.254 1118.245,211.729 			"/>
			<polygon fill="#6CBAD4" points="1118.245,258.778 1158.992,282.304 1118.245,305.828 			"/>
			<polygon fill="#46ABA4" points="1118.245,305.829 1077.498,282.305 1118.245,258.779 			"/>
			<polygon fill="#6795C1" points="1118.245,305.829 1158.992,329.354 1118.245,352.879 			"/>
			<polygon fill="#6CBAD4" points="1118.245,352.88 1077.498,329.355 1118.245,305.83 			"/>
			<polygon fill="#6795C1" points="1118.245,352.88 1158.992,376.405 1118.245,399.931 			"/>
			<polygon fill="#46ABA4" points="1118.245,399.931 1077.498,376.406 1118.245,352.881 			"/>
			<polygon fill="#46ABA4" points="1118.245,399.931 1158.992,423.456 1118.245,446.981 			"/>
			<polygon fill="#6CBAD4" points="1118.245,446.982 1077.498,423.457 1118.245,399.932 			"/>
			<polygon fill="#46ABA4" points="1118.245,446.982 1158.992,470.507 1118.245,494.032 			"/>
			<polygon fill="#6CBAD4" points="1118.245,494.033 1077.498,470.508 1118.245,446.983 			"/>
			<polygon fill="#6795C1" points="1118.245,494.033 1158.992,517.558 1118.245,541.083 			"/>
			<polygon fill="#46ABA4" points="1118.245,541.084 1077.498,517.559 1118.245,494.034 			"/>
			<polygon fill="#6795C1" points="1118.245,541.084 1158.992,564.608 1118.245,588.133 			"/>
			<polygon fill="#6CBAD4" points="1118.245,588.135 1077.498,564.609 1118.245,541.085 			"/>
			<polygon fill="#6795C1" points="1118.245,588.135 1158.992,611.659 1118.245,635.184 			"/>
			<polygon fill="#6CBAD4" points="1118.245,635.185 1077.498,611.66 1118.245,588.136 			"/>
			<polygon fill="#6CBAD4" points="1118.245,635.185 1158.992,658.71 1118.245,682.235 			"/>
			<polygon fill="#6795C1" points="1118.245,682.236 1077.498,658.711 1118.245,635.186 			"/>
			<polygon fill="#46ABA4" points="1118.245,682.236 1158.992,705.761 1118.245,729.286 			"/>
			<polygon fill="#6CBAD4" points="1118.245,729.287 1077.498,705.762 1118.245,682.237 			"/>
			<polygon fill="#46ABA4" points="1118.245,729.287 1158.992,752.812 1118.245,776.337 			"/>
			<polygon fill="#6795C1" points="1118.245,776.338 1077.498,752.812 1118.245,729.288 			"/>
			<polygon fill="#46ABA4" points="1118.245,776.338 1158.992,799.862 1118.245,823.388 			"/>
			<polygon fill="#6795C1" points="1118.245,823.389 1077.498,799.863 1118.245,776.339 			"/>
			<polygon fill="#6795C1" points="1077.583,0 1118.33,23.525 1077.583,47.05 			"/>
			<polygon fill="#46ABA4" points="1077.583,47.051 1036.836,23.526 1077.583,0.001 			"/>
			<polygon fill="#6795C1" points="1077.583,47.051 1118.33,70.576 1077.583,94.101 			"/>
			<polygon fill="#6CBAD4" points="1077.583,94.102 1036.836,70.577 1077.583,47.052 			"/>
			<polygon fill="#46ABA4" points="1077.583,94.102 1118.33,117.627 1077.583,141.152 			"/>
			<polygon fill="#6CBAD4" points="1077.583,141.153 1036.836,117.628 1077.583,94.103 			"/>
			<polygon fill="#46ABA4" points="1077.583,141.153 1118.33,164.678 1077.583,188.203 			"/>
			<polygon fill="#6795C1" points="1077.583,188.204 1036.836,164.679 1077.583,141.153 			"/>
			<polygon fill="#46ABA4" points="1077.583,188.204 1118.33,211.729 1077.583,235.253 			"/>
			<polygon fill="#6CBAD4" points="1077.583,235.254 1036.836,211.729 1077.583,188.205 			"/>
			<polygon fill="#6CBAD4" points="1077.583,235.254 1118.33,258.779 1077.583,282.304 			"/>
			<polygon fill="#46ABA4" points="1077.583,282.305 1036.836,258.78 1077.583,235.255 			"/>
			<polygon fill="#6795C1" points="1077.583,282.305 1118.33,305.83 1077.583,329.354 			"/>
			<polygon fill="#6CBAD4" points="1077.583,329.355 1036.836,305.831 1077.583,282.306 			"/>
			<polygon fill="#6795C1" points="1077.583,329.355 1118.33,352.881 1077.583,376.405 			"/>
			<polygon fill="#6CBAD4" points="1077.583,376.406 1036.836,352.882 1077.583,329.356 			"/>
			<polygon opacity="0.7" fill="#6CBAD4" points="1077.583,376.406 1118.33,399.932 1077.583,423.457 			"/>
			<polygon fill="#46ABA4" points="1077.583,423.457 1036.836,399.933 1077.583,376.407 			"/>
			<polygon fill="#46ABA4" points="1077.583,423.457 1118.33,446.982 1077.583,470.508 			"/>
			<polygon fill="#6795C1" points="1077.583,470.509 1036.836,446.983 1077.583,423.458 			"/>
			<polygon fill="#6795C1" points="1077.583,470.509 1118.33,494.033 1077.583,517.559 			"/>
			<polygon fill="#46ABA4" points="1077.583,517.56 1036.836,494.034 1077.583,470.51 			"/>
			<polygon opacity="0.7" fill="#6CBAD4" points="1077.583,517.56 1118.33,541.084 1077.583,564.609 			"/>
			<polygon fill="#6795C1" points="1077.583,564.61 1036.836,541.085 1077.583,517.561 			"/>
			<polygon fill="#46ABA4" points="1077.583,564.61 1118.33,588.135 1077.583,611.659 			"/>
			<polygon fill="#6795C1" points="1077.583,611.661 1036.836,588.136 1077.583,564.611 			"/>
			<polygon fill="#46ABA4" points="1077.583,611.661 1118.33,635.186 1077.583,658.71 			"/>
			<polygon fill="#6795C1" points="1077.583,658.711 1036.836,635.187 1077.583,611.662 			"/>
			<polygon fill="#46ABA4" points="1077.583,658.711 1118.33,682.236 1077.583,705.762 			"/>
			<polygon fill="#6795C1" points="1077.583,705.763 1036.836,682.237 1077.583,658.712 			"/>
			<polygon fill="#46ABA4" points="1077.583,705.763 1118.33,729.287 1077.583,752.812 			"/>
			<polygon fill="#6795C1" points="1077.583,752.813 1036.836,729.288 1077.583,705.764 			"/>
			<polygon fill="#46ABA4" points="1077.583,752.813 1118.33,776.338 1077.583,799.863 			"/>
			<polygon fill="#6795C1" points="1077.583,799.864 1036.836,776.339 1077.583,752.814 			"/>
			<polygon fill="#6CBAD4" points="1036.836,-23.526 1077.583,-0.001 1036.836,23.523 			"/>
			<polygon fill="#6795C1" points="1036.836,23.524 996.089,0 1036.836,-23.525 			"/>
			<polygon fill="#6795C1" points="1036.836,23.524 1077.583,47.05 1036.836,70.574 			"/>
			<polygon fill="#6CBAD4" points="1036.836,70.575 996.089,47.051 1036.836,23.525 			"/>
			<polygon fill="#6795C1" points="1036.836,70.575 1077.583,94.101 1036.836,117.626 			"/>
			<polygon fill="#6CBAD4" points="1036.836,117.627 996.089,94.102 1036.836,70.576 			"/>
			<polygon fill="#46ABA4" points="1036.836,117.627 1077.583,141.151 1036.836,164.677 			"/>
			<polygon opacity="0.7" fill="#6CBAD4" points="1036.836,164.678 996.089,141.152 1036.836,117.627 			"/>
			<polygon fill="#46ABA4" points="1036.836,164.678 1077.583,188.202 1036.836,211.727 			"/>
			<polygon fill="#6CBAD4" points="1036.836,211.728 996.089,188.203 1036.836,164.679 			"/>
			<polygon fill="#6795C1" points="1036.836,211.728 1077.583,235.253 1036.836,258.777 			"/>
			<polygon fill="#46ABA4" points="1036.836,258.778 996.089,235.254 1036.836,211.729 			"/>
			<polygon fill="#6795C1" points="1036.836,258.778 1077.583,282.304 1036.836,305.828 			"/>
			<polygon fill="#46ABA4" points="1036.836,305.829 996.089,282.305 1036.836,258.779 			"/>
			<polygon fill="#6795C1" points="1036.836,305.829 1077.583,329.354 1036.836,352.879 			"/>
			<polygon fill="#6CBAD4" points="1036.836,352.88 996.089,329.355 1036.836,305.83 			"/>
			<polygon fill="#6795C1" points="1036.836,352.88 1077.583,376.405 1036.836,399.931 			"/>
			<polygon fill="#6CBAD4" points="1036.836,399.931 996.089,376.406 1036.836,352.881 			"/>
			<polygon fill="#6CBAD4" points="1036.836,399.931 1077.583,423.456 1036.836,446.981 			"/>
			<polygon fill="#46ABA4" points="1036.836,446.982 996.089,423.457 1036.836,399.932 			"/>
			<polygon opacity="0.7" fill="#6CBAD4" points="1036.836,446.982 1077.583,470.507 1036.836,494.032 			"/>
			<polygon fill="#6CBAD4" points="1036.836,494.033 996.089,470.508 1036.836,446.983 			"/>
			<polygon fill="#6CBAD4" points="1036.836,494.033 1077.583,517.558 1036.836,541.083 			"/>
			<polygon fill="#6795C1" points="1036.836,541.084 996.089,517.559 1036.836,494.034 			"/>
			<polygon fill="#6CBAD4" points="1036.836,541.084 1077.583,564.608 1036.836,588.133 			"/>
			<polygon fill="#6795C1" points="1036.836,588.135 996.089,564.609 1036.836,541.085 			"/>
			<polygon fill="#6CBAD4" points="1036.836,588.135 1077.583,611.659 1036.836,635.184 			"/>
			<polygon fill="#6CBAD4" points="1036.836,635.185 996.089,611.66 1036.836,588.136 			"/>
			<polygon fill="#46ABA4" points="1036.836,635.185 1077.583,658.71 1036.836,682.235 			"/>
			<polygon fill="#6CBAD4" points="1036.836,682.236 996.089,658.711 1036.836,635.186 			"/>
			<polygon fill="#6CBAD4" points="1036.836,682.236 1077.583,705.761 1036.836,729.286 			"/>
			<polygon fill="#46ABA4" points="1036.836,729.287 996.089,705.762 1036.836,682.237 			"/>
			<polygon fill="#6CBAD4" points="1036.836,729.287 1077.583,752.812 1036.836,776.337 			"/>
			<polygon fill="#46ABA4" points="1036.836,776.338 996.089,752.812 1036.836,729.288 			"/>
			<polygon fill="#46ABA4" points="1036.836,776.338 1077.583,799.862 1036.836,823.388 			"/>
			<polygon fill="#46ABA4" points="1036.836,823.389 996.089,799.863 1036.836,776.339 			"/>
			<polygon fill="#6CBAD4" points="996.111,0 1036.859,23.525 996.111,47.05 			"/>
			<polygon fill="#6795C1" points="996.111,47.051 955.365,23.526 996.111,0.001 			"/>
			<polygon fill="#6795C1" points="996.111,47.051 1036.859,70.576 996.111,94.101 			"/>
			<polygon fill="#46ABA4" points="996.111,94.102 955.365,70.577 996.111,47.052 			"/>
			<polygon fill="#46ABA4" points="996.111,94.102 1036.859,117.627 996.111,141.152 			"/>
			<polygon fill="#6795C1" points="996.111,141.153 955.365,117.628 996.111,94.103 			"/>
			<polygon fill="#6795C1" points="996.111,141.153 1036.859,164.678 996.111,188.203 			"/>
			<polygon fill="#46ABA4" points="996.111,188.204 955.365,164.679 996.111,141.153 			"/>
			<polygon fill="#6795C1" points="996.111,188.204 1036.859,211.729 996.111,235.253 			"/>
			<polygon opacity="0.5" fill="#54DECD" points="996.111,235.254 955.365,211.729 996.111,188.205 			"/>
			<polygon fill="#6CBAD4" points="996.111,235.254 1036.859,258.779 996.111,282.304 			"/>
			<polygon fill="#6795C1" points="996.111,282.305 955.365,258.78 996.111,235.255 			"/>
			<polygon opacity="0.7" fill="#6CBAD4" points="996.111,282.305 1036.859,305.83 996.111,329.354 			"/>
			<polygon fill="#6795C1" points="996.111,329.355 955.365,305.831 996.111,282.306 			"/>
			<polygon fill="#6795C1" points="996.111,329.355 1036.859,352.881 996.111,376.405 			"/>
			<polygon fill="#46ABA4" points="996.111,376.406 955.365,352.882 996.111,329.356 			"/>
			<polygon opacity="0.7" fill="#6CBAD4" points="996.111,376.406 1036.859,399.932 996.111,423.457 			"/>
			<polygon fill="#6CBAD4" points="996.111,423.457 955.365,399.933 996.111,376.407 			"/>
			<polygon fill="#6795C1" points="996.111,423.457 1036.859,446.982 996.111,470.508 			"/>
			<polygon opacity="0.7" fill="#6CBAD4" points="996.111,470.509 955.365,446.983 996.111,423.458 			"/>
			<polygon opacity="0.7" fill="#6CBAD4" points="996.111,470.509 1036.859,494.033 996.111,517.559 			"/>
			<polygon fill="#6795C1" points="996.111,517.56 955.365,494.034 996.111,470.51 			"/>
			<polygon fill="#6CBAD4" points="996.111,517.56 1036.859,541.084 996.111,564.609 			"/>
			<polygon opacity="0.7" fill="#6CBAD4" points="996.111,564.61 955.365,541.085 996.111,517.561 			"/>
			<polygon fill="#46ABA4" points="996.111,564.61 1036.859,588.135 996.111,611.659 			"/>
			<polygon fill="#6CBAD4" points="996.111,611.661 955.365,588.136 996.111,564.611 			"/>
			<polygon fill="#6795C1" points="996.111,611.661 1036.859,635.186 996.111,658.71 			"/>
			<polygon fill="#46ABA4" points="996.111,658.711 955.365,635.187 996.111,611.662 			"/>
			<polygon fill="#6795C1" points="996.111,658.711 1036.859,682.236 996.111,705.762 			"/>
			<polygon fill="#46ABA4" points="996.111,705.763 955.365,682.237 996.111,658.712 			"/>
			<polygon fill="#6CBAD4" points="996.111,705.763 1036.859,729.287 996.111,752.812 			"/>
			<polygon fill="#6795C1" points="996.111,752.813 955.365,729.288 996.111,705.764 			"/>
			<polygon fill="#6CBAD4" points="996.111,752.813 1036.858,776.338 996.111,799.863 			"/>
			<polygon fill="#46ABA4" points="996.111,799.864 955.364,776.339 996.111,752.814 			"/>
			<polygon fill="#6CBAD4" points="955.365,-23.526 996.111,-0.001 955.365,23.523 			"/>
			<polygon fill="#6795C1" points="955.365,23.524 914.617,0 955.365,-23.525 			"/>
			<polygon opacity="0.5" fill="#54DECD" points="955.365,23.524 996.111,47.05 955.365,70.574 			"/>
			<polygon fill="#6CBAD4" points="955.365,70.575 914.617,47.051 955.365,23.525 			"/>
			<polygon fill="#6CBAD4" points="955.365,70.575 996.111,94.101 955.365,117.626 			"/>
			<polygon fill="#6CBAD4" points="955.365,117.627 914.617,94.102 955.365,70.576 			"/>
			<polygon fill="#6CBAD4" points="955.365,117.627 996.111,141.151 955.365,164.677 			"/>
			<polygon fill="#6795C1" points="955.365,164.678 914.617,141.152 955.365,117.627 			"/>
			<polygon fill="#6CBAD4" points="955.365,164.678 996.111,188.202 955.365,211.727 			"/>
			<polygon fill="#6795C1" points="955.365,211.728 914.617,188.203 955.365,164.679 			"/>
			<polygon opacity="0.7" fill="#6795C1" points="955.365,211.728 996.111,235.253 955.365,258.777 			"/>
			<polygon fill="#6CBAD4" points="955.365,258.778 914.617,235.254 955.365,211.729 			"/>
			<polygon fill="#6CBAD4" points="955.365,258.778 996.111,282.304 955.365,305.828 			"/>
			<polygon fill="#6CBAD4" points="955.365,305.829 914.617,282.305 955.365,258.779 			"/>
			<polygon fill="#6CBAD4" points="955.365,305.829 996.111,329.354 955.365,352.879 			"/>
			<polygon fill="#6795C1" points="955.365,352.88 914.617,329.355 955.365,305.83 			"/>
			<polygon opacity="0.7" fill="#6CBAD4" points="955.365,352.88 996.111,376.405 955.365,399.931 			"/>
			<polygon fill="#6CBAD4" points="955.365,399.931 914.617,376.406 955.365,352.881 			"/>
			<polygon opacity="0.5" fill="#54DECD" points="955.365,399.931 996.111,423.456 955.365,446.981 			"/>
			<polygon fill="#6CBAD4" points="955.365,446.982 914.617,423.457 955.365,399.932 			"/>
			<polygon fill="#46ABA4" points="955.365,446.982 996.111,470.507 955.365,494.032 			"/>
			<polygon fill="#6CBAD4" points="955.365,494.033 914.617,470.508 955.365,446.983 			"/>
			<polygon fill="#6CBAD4" points="955.365,494.033 996.111,517.558 955.365,541.083 			"/>
			<polygon fill="#6CBAD4" points="955.365,541.084 914.617,517.559 955.365,494.034 			"/>
			<polygon fill="#6795C1" points="955.365,541.084 996.111,564.608 955.365,588.133 			"/>
			<polygon fill="#6CBAD4" points="955.365,588.135 914.617,564.609 955.365,541.085 			"/>
			<polygon fill="#6795C1" points="955.365,588.135 996.111,611.659 955.365,635.184 			"/>
			<polygon fill="#6CBAD4" points="955.365,635.185 914.617,611.66 955.365,588.136 			"/>
			<polygon fill="#6CBAD4" points="955.365,635.185 996.111,658.71 955.365,682.235 			"/>
			<polygon fill="#6795C1" points="955.365,682.236 914.617,658.711 955.365,635.186 			"/>
			<polygon fill="#6CBAD4" points="955.365,682.236 996.111,705.761 955.365,729.286 			"/>
			<polygon fill="#6795C1" points="955.365,729.287 914.617,705.762 955.365,682.237 			"/>
			<polygon fill="#6CBAD4" points="955.365,729.287 996.111,752.812 955.364,776.337 			"/>
			<polygon fill="#6CBAD4" points="955.364,776.338 914.617,752.812 955.365,729.288 			"/>
			<polygon fill="#6CBAD4" points="955.364,776.338 996.111,799.862 955.364,823.388 			"/>
			<polygon fill="#6CBAD4" points="955.364,823.389 914.617,799.863 955.364,776.339 			"/>
			<polygon opacity="0.7" fill="#6CBAD4" points="914.598,0 955.346,23.525 914.598,47.05 			"/>
			<polygon fill="#6795C1" points="914.598,47.051 873.852,23.526 914.598,0.001 			"/>
			<polygon fill="#6795C1" points="914.598,47.051 955.346,70.576 914.598,94.101 			"/>
			<polygon opacity="0.5" fill="#54DECD" points="914.598,94.102 873.852,70.577 914.598,47.052 			"/>
			<polygon opacity="0.5" fill="#54DECD" points="914.598,94.102 955.346,117.627 914.598,141.152 			"/>
			<polygon fill="#6795C1" points="914.598,141.153 873.852,117.628 914.598,94.103 			"/>
			<polygon fill="#6CBAD4" points="914.598,141.153 955.346,164.678 914.598,188.203 			"/>
			<polygon opacity="0.5" fill="#54DECD" points="914.598,188.204 873.852,164.679 914.598,141.153 			"/>
			<polygon opacity="0.7" fill="#6CBAD4" points="914.598,188.204 955.346,211.729 914.598,235.253 			"/>
			<polygon fill="#6CBAD4" points="914.598,235.254 873.852,211.729 914.598,188.205 			"/>
			<polygon opacity="0.7" fill="#6CBAD4" points="914.598,235.254 955.346,258.779 914.598,282.304 			"/>
			<polygon fill="#6795C1" points="914.598,282.305 873.852,258.78 914.598,235.255 			"/>
			<polygon opacity="0.7" fill="#6CBAD4" points="914.598,282.305 955.346,305.83 914.598,329.354 			"/>
			<polygon fill="#6CBAD4" points="914.598,329.355 873.852,305.831 914.598,282.306 			"/>
			<polygon opacity="0.7" fill="#6CBAD4" points="914.598,329.355 955.346,352.881 914.598,376.405 			"/>
			<polygon fill="#6CBAD4" points="914.598,376.406 873.852,352.882 914.598,329.356 			"/>
			<polygon fill="#6795C1" points="914.598,376.406 955.346,399.932 914.598,423.457 			"/>
			<polygon fill="#6CBAD4" points="914.598,423.457 873.852,399.933 914.598,376.407 			"/>
			<polygon opacity="0.7" fill="#6CBAD4" points="914.598,423.457 955.346,446.982 914.598,470.508 			"/>
			<polygon fill="#6CBAD4" points="914.598,470.509 873.852,446.983 914.598,423.458 			"/>
			<polygon opacity="0.5" fill="#54DECD" points="914.598,470.509 955.346,494.033 914.598,517.559 			"/>
			<polygon opacity="0.7" fill="#6CBAD4" points="914.598,517.56 873.852,494.034 914.598,470.51 			"/>
			<polygon opacity="0.7" fill="#6CBAD4" points="914.598,517.56 955.346,541.084 914.598,564.609 			"/>
			<polygon fill="#6CBAD4" points="914.598,564.61 873.852,541.085 914.598,517.561 			"/>
			<polygon fill="#6795C1" points="914.598,564.61 955.346,588.135 914.598,611.659 			"/>
			<polygon opacity="0.5" fill="#54DECD" points="914.598,611.661 873.852,588.136 914.598,564.611 			"/>
			<polygon opacity="0.7" fill="#6CBAD4" points="914.598,611.661 955.346,635.186 914.598,658.71 			"/>
			<polygon opacity="0.5" fill="#54DECD" points="914.598,658.711 873.852,635.187 914.598,611.662 			"/>
			<polygon opacity="0.7" fill="#6CBAD4" points="914.598,658.711 955.346,682.236 914.598,705.762 			"/>
			<polygon fill="#6CBAD4" points="914.598,705.763 873.852,682.237 914.598,658.712 			"/>
			<polygon fill="#6CBAD4" points="914.598,705.763 955.346,729.287 914.598,752.812 			"/>
			<polygon fill="#6795C1" points="914.598,752.813 955.345,776.338 914.598,799.863 			"/>
			<polygon fill="#6CBAD4" points="914.598,799.864 873.852,776.339 914.598,752.814 			"/>
			<polygon fill="#6CBAD4" points="873.852,-23.526 914.598,-0.001 873.852,23.523 			"/>
			<polygon opacity="0.5" fill="#54DECD" points="873.852,23.524 833.104,0 873.852,-23.525 			"/>
			<polygon opacity="0.5" fill="#54DECD" points="792.379,-23.527 751.633,-47.052 792.379,-70.577 			"/>
			<polygon fill="#6CBAD4" points="873.852,23.524 914.598,47.05 873.852,70.574 			"/>
			<polygon opacity="0.7" fill="#6CBAD4" points="873.852,70.575 833.104,47.051 873.852,23.525 			"/>
			<polygon fill="#6CBAD4" points="873.852,70.575 914.598,94.101 873.852,117.626 			"/>
			<polygon opacity="0.7" fill="#6CBAD4" points="873.852,117.627 914.598,141.151 873.852,164.677 			"/>
			<polygon fill="#6CBAD4" points="873.852,164.678 833.104,141.152 873.852,117.627 			"/>
			<polygon opacity="0.2" fill="#54DECD" points="873.852,164.678 914.598,188.202 873.852,211.727 			"/>
			<polygon fill="#6CBAD4" points="873.852,211.728 833.104,188.203 873.852,164.679 			"/>
			<polygon opacity="0.5" fill="#54DECD" points="873.852,211.728 914.598,235.253 873.852,258.777 			"/>
			<polygon fill="#6CBAD4" points="873.852,258.778 833.104,235.254 873.852,211.729 			"/>
			<polygon opacity="0.5" fill="#54DECD" points="873.852,258.778 914.598,282.304 873.852,305.828 			"/>
			<polygon fill="#6CBAD4" points="873.852,305.829 833.104,282.305 873.852,258.779 			"/>
			<polygon opacity="0.7" fill="#6CBAD4" points="873.852,305.829 914.598,329.354 873.852,352.879 			"/>
			<polygon fill="#6CBAD4" points="873.852,352.88 833.104,329.355 873.852,305.83 			"/>
			<polygon fill="#6795C1" points="873.852,352.88 914.598,376.405 873.852,399.931 			"/>
			<polygon fill="#6CBAD4" points="873.852,399.931 833.104,376.406 873.852,352.881 			"/>
			<polygon opacity="0.7" fill="#6CBAD4" points="873.852,399.931 914.598,423.456 873.852,446.981 			"/>
			<polygon fill="#6CBAD4" points="873.852,446.982 833.104,423.457 873.852,399.932 			"/>
			<polygon fill="#6CBAD4" points="873.852,446.982 914.598,470.507 873.852,494.032 			"/>
			<polygon opacity="0.7" fill="#6CBAD4" points="873.852,494.033 833.104,470.508 873.852,446.983 			"/>
			<polygon opacity="0.5" fill="#54DECD" points="873.852,494.033 914.598,517.558 873.852,541.083 			"/>
			<polygon opacity="0.7" fill="#6CBAD4" points="873.852,541.084 833.104,517.559 873.852,494.034 			"/>
			<polygon opacity="0.7" fill="#6CBAD4" points="873.852,541.084 914.598,564.608 873.852,588.133 			"/>
			<polygon fill="#6795C1" points="873.852,588.135 833.104,564.609 873.852,541.085 			"/>
			<polygon fill="#6CBAD4" points="873.852,588.135 914.598,611.659 873.852,635.184 			"/>
			<polygon opacity="0.5" fill="#54DECD" points="873.852,635.185 833.104,611.66 873.852,588.136 			"/>
			<polygon opacity="0.7" fill="#6CBAD4" points="873.852,635.185 914.598,658.71 873.852,682.235 			"/>
			<polygon fill="#6CBAD4" points="873.852,682.236 833.104,658.711 873.852,635.186 			"/>
			<polygon opacity="0.5" fill="#54DECD" points="873.852,682.236 914.598,705.761 873.852,729.286 			"/>
			<polygon fill="#6CBAD4" points="873.852,729.287 833.104,705.762 873.852,682.237 			"/>
			<polygon opacity="0.7" fill="#6CBAD4" points="873.852,729.287 914.598,752.812 873.852,776.337 			"/>
			<polygon fill="#6CBAD4" points="873.852,776.338 833.104,752.812 873.852,729.288 			"/>
			<polygon opacity="0.5" fill="#54DECD" points="873.852,776.338 914.598,799.862 873.851,823.388 			"/>
			<polygon opacity="0.7" fill="#6CBAD4" points="873.851,823.389 833.104,799.863 873.852,776.339 			"/>
			<polygon fill="#6CBAD4" points="833.127,47.051 792.379,23.526 833.127,0.001 			"/>
			<polygon opacity="0.5" fill="#54DECD" points="833.127,47.051 873.873,70.576 833.127,94.101 			"/>
			<polygon opacity="0.2" fill="#54DECD" points="833.127,94.102 792.379,70.577 833.127,47.052 			"/>
			<polygon opacity="0.2" fill="#54DECD" points="833.127,94.102 873.873,117.627 833.127,141.152 			"/>
			<polygon fill="#6CBAD4" points="833.127,141.153 792.379,117.628 833.127,94.103 			"/>
			<polygon opacity="0.5" fill="#54DECD" points="833.127,141.153 873.873,164.678 833.127,188.203 			"/>
			<polygon fill="#6CBAD4" points="833.127,188.204 792.379,164.679 833.127,141.153 			"/>
			<polygon opacity="0.7" fill="#6CBAD4" points="833.127,188.204 873.873,211.729 833.127,235.253 			"/>
			<polygon fill="#6CBAD4" points="833.127,235.254 792.379,211.729 833.127,188.205 			"/>
			<polygon opacity="0.7" fill="#6CBAD4" points="833.127,235.254 873.873,258.779 833.127,282.304 			"/>
			<polygon opacity="0.5" fill="#54DECD" points="833.127,282.305 792.379,258.78 833.127,235.255 			"/>
			<polygon opacity="0.7" fill="#6CBAD4" points="833.127,282.305 873.873,305.83 833.127,329.354 			"/>
			<polygon opacity="0.5" fill="#54DECD" points="833.127,329.355 792.379,305.831 833.127,282.306 			"/>
			<polygon opacity="0.7" fill="#6CBAD4" points="833.127,329.355 873.873,352.881 833.127,376.405 			"/>
			<polygon fill="#6CBAD4" points="833.127,376.406 792.379,352.882 833.127,329.356 			"/>
			<polygon fill="#6795C1" points="833.127,376.406 873.873,399.932 833.127,423.457 			"/>
			<polygon fill="#6CBAD4" points="833.127,423.457 792.379,399.933 833.127,376.407 			"/>
			<polygon opacity="0.5" fill="#54DECD" points="833.127,423.457 873.873,446.982 833.127,470.508 			"/>
			<polygon fill="#6CBAD4" points="833.127,470.509 792.379,446.983 833.127,423.458 			"/>
			<polygon fill="#6CBAD4" points="833.127,470.509 873.873,494.033 833.127,517.559 			"/>
			<polygon fill="#6CBAD4" points="833.127,517.56 792.379,494.034 833.127,470.51 			"/>
			<polygon fill="#6CBAD4" points="833.127,517.56 873.873,541.084 833.127,564.609 			"/>
			<polygon fill="#6CBAD4" points="833.127,564.61 792.379,541.085 833.127,517.561 			"/>
			<polygon fill="#6CBAD4" points="833.127,564.61 873.873,588.135 833.127,611.659 			"/>
			<polygon fill="#6CBAD4" points="833.127,611.661 792.379,588.136 833.127,564.611 			"/>
			<polygon opacity="0.7" fill="#6CBAD4" points="833.127,611.661 873.873,635.186 833.127,658.71 			"/>
			<polygon opacity="0.7" fill="#6CBAD4" points="833.127,658.711 792.379,635.187 833.127,611.662 			"/>
			<polygon opacity="0.5" fill="#54DECD" points="833.127,658.711 873.873,682.236 833.127,705.762 			"/>
			<polygon opacity="0.7" fill="#6CBAD4" points="833.127,705.763 873.873,729.287 833.127,752.812 			"/>
			<polygon fill="#6CBAD4" points="833.127,752.813 792.379,729.288 833.127,705.764 			"/>
			<polygon opacity="0.5" fill="#54DECD" points="833.127,752.813 873.873,776.338 833.127,799.863 			"/>
			<polygon opacity="0.7" fill="#6CBAD4" points="792.379,-23.526 833.127,-0.001 792.379,23.523 			"/>
			<polygon opacity="0.7" fill="#6CBAD4" points="792.379,23.524 751.633,0 792.379,-23.525 			"/>
			<polygon fill="#6CBAD4" points="792.379,70.575 751.633,47.051 792.379,23.525 			"/>
			<polygon fill="#6CBAD4" points="792.379,117.627 751.633,94.102 792.379,70.576 			"/>
			<polygon opacity="0.7" fill="#6CBAD4" points="792.379,117.627 833.127,141.151 792.379,164.677 			"/>
			<polygon fill="#6CBAD4" points="792.379,164.678 751.633,141.152 792.379,117.627 			"/>
			<polygon opacity="0.7" fill="#6CBAD4" points="792.379,164.678 833.127,188.202 792.379,211.727 			"/>
			<polygon fill="#6CBAD4" points="792.379,211.728 751.633,188.203 792.379,164.679 			"/>
			<polygon opacity="0.7" fill="#6CBAD4" points="792.379,211.728 833.127,235.253 792.379,258.777 			"/>
			<polygon fill="#6CBAD4" points="792.379,258.778 751.633,235.254 792.379,211.729 			"/>
			<polygon fill="#6795C1" points="792.379,258.778 833.127,282.304 792.379,305.828 			"/>
			<polygon fill="#6CBAD4" points="792.379,305.829 751.633,282.305 792.379,258.779 			"/>
			<polygon opacity="0.7" fill="#6CBAD4" points="792.379,305.829 833.127,329.354 792.379,352.879 			"/>
			<polygon opacity="0.5" fill="#54DECD" points="792.379,352.88 751.633,329.355 792.379,305.83 			"/>
			<polygon opacity="0.5" fill="#54DECD" points="792.379,352.88 833.127,376.405 792.379,399.931 			"/>
			<polygon fill="#6CBAD4" points="792.379,399.931 751.633,376.406 792.379,352.881 			"/>
			<polygon opacity="0.7" fill="#6CBAD4" points="792.379,399.931 833.127,423.456 792.379,446.981 			"/>
			<polygon fill="#6CBAD4" points="792.379,446.982 751.633,423.457 792.379,399.932 			"/>
			<polygon fill="#6795C1" points="792.379,446.982 833.127,470.507 792.379,494.032 			"/>
			<polygon opacity="0.7" fill="#6CBAD4" points="792.379,494.033 751.633,470.508 792.379,446.983 			"/>
			<polygon opacity="0.7" fill="#6CBAD4" points="792.379,494.033 833.127,517.558 792.379,541.083 			"/>
			<polygon fill="#6795C1" points="792.379,541.084 751.633,517.559 792.379,494.034 			"/>
			<polygon opacity="0.7" fill="#6CBAD4" points="792.379,541.084 833.127,564.608 792.379,588.133 			"/>
			<polygon fill="#6CBAD4" points="792.379,588.135 751.633,564.609 792.379,541.085 			"/>
			<polygon fill="#6CBAD4" points="792.379,635.185 751.633,611.66 792.379,588.136 			"/>
			<polygon fill="#6CBAD4" points="792.379,635.185 833.127,658.71 792.379,682.235 			"/>
			<polygon opacity="0.5" fill="#54DECD" points="792.379,682.236 751.633,658.711 792.379,635.186 			"/>
			<polygon opacity="0.7" fill="#6CBAD4" points="792.379,682.236 833.127,705.761 792.379,729.286 			"/>
			<polygon opacity="0.2" fill="#54DECD" points="792.379,729.287 751.633,705.762 792.379,682.237 			"/>
			<polygon opacity="0.5" fill="#54DECD" points="792.379,729.287 833.127,752.812 792.379,776.337 			"/>
			<polygon fill="#6CBAD4" points="792.379,776.338 833.127,799.862 792.379,823.388 			"/>
			<polygon opacity="0.7" fill="#6CBAD4" points="751.65,94.102 792.396,117.627 751.65,141.152 			"/>
			<polygon opacity="0.5" fill="#54DECD" points="751.65,188.204 710.902,164.679 751.65,141.153 			"/>
			<polygon opacity="0.7" fill="#6CBAD4" points="751.65,188.204 792.396,211.729 751.65,235.253 			"/>
			<polygon fill="#46ABA4" points="1158.992,-188.203 1118.245,-211.728 1158.992,-235.253 			"/>
			<polygon fill="#46ABA4" points="1158.992,-141.151 1118.245,-164.677 1158.992,-188.202 			"/>
			<polygon fill="#6CBAD4" points="1158.992,-94.101 1118.245,-117.626 1158.992,-141.151 			"/>
			<polygon fill="#6795C1" points="1158.992,-47.051 1118.245,-70.575 1158.992,-94.1 			"/>
			<polygon fill="#6795C1" points="1118.245,-211.729 1158.992,-188.204 1118.245,-164.679 			"/>
			<polygon fill="#6795C1" points="1118.245,-164.678 1077.498,-188.203 1118.245,-211.729 			"/>
			<polygon fill="#6795C1" points="1118.245,-164.678 1158.992,-141.153 1118.245,-117.628 			"/>
			<polygon fill="#6795C1" points="1118.245,-117.627 1077.498,-141.152 1118.245,-164.678 			"/>
			<polygon fill="#46ABA4" points="1118.245,-117.627 1158.992,-94.103 1118.245,-70.578 			"/>
			<polygon fill="#6795C1" points="1118.245,-70.577 1077.498,-94.102 1118.245,-117.626 			"/>
			<polygon fill="#6CBAD4" points="1118.245,-70.577 1158.992,-47.052 1118.245,-23.527 			"/>
			<polygon fill="#6795C1" points="1118.245,-23.526 1077.498,-47.051 1118.245,-70.576 			"/>
			<polygon fill="#6795C1" points="1077.583,-235.254 1118.33,-211.729 1077.583,-188.204 			"/>
			<polygon fill="#6CBAD4" points="1077.583,-188.203 1036.836,-211.728 1077.583,-235.253 			"/>
			<polygon fill="#46ABA4" points="1077.583,-188.203 1118.33,-164.678 1077.583,-141.152 			"/>
			<polygon fill="#6CBAD4" points="1077.583,-141.151 1036.836,-164.677 1077.583,-188.202 			"/>
			<polygon fill="#46ABA4" points="1077.583,-141.151 1118.33,-117.627 1077.583,-94.102 			"/>
			<polygon fill="#6795C1" points="1077.583,-94.101 1036.836,-117.626 1077.583,-141.151 			"/>
			<polygon fill="#46ABA4" points="1077.583,-94.101 1118.33,-70.576 1077.583,-47.052 			"/>
			<polygon fill="#6CBAD4" points="1077.583,-47.051 1036.836,-70.575 1077.583,-94.1 			"/>
			<polygon fill="#6795C1" points="1036.836,-211.729 1077.583,-188.204 1036.836,-164.679 			"/>
			<polygon fill="#6CBAD4" points="1036.836,-164.678 996.089,-188.203 1036.836,-211.729 			"/>
			<polygon fill="#46ABA4" points="1036.836,-164.678 1077.583,-141.153 1036.836,-117.628 			"/>
			<polygon opacity="0.7" fill="#6CBAD4" points="1036.836,-117.627 996.089,-141.152 1036.836,-164.678 			"/>
			<polygon fill="#46ABA4" points="1036.836,-117.627 1077.583,-94.103 1036.836,-70.578 			"/>
			<polygon fill="#6CBAD4" points="1036.836,-70.577 996.089,-94.102 1036.836,-117.626 			"/>
			<polygon fill="#6795C1" points="1036.836,-70.577 1077.583,-47.052 1036.836,-23.527 			"/>
			<polygon fill="#46ABA4" points="1036.836,-23.526 996.089,-47.051 1036.836,-70.576 			"/>
			<polygon fill="#6795C1" points="996.111,-235.254 1036.859,-211.729 996.111,-188.204 			"/>
			<polygon fill="#46ABA4" points="996.111,-188.203 955.365,-211.728 996.111,-235.253 			"/>
			<polygon fill="#46ABA4" points="996.111,-188.203 1036.859,-164.678 996.111,-141.152 			"/>
			<polygon fill="#6795C1" points="996.111,-141.151 955.365,-164.677 996.111,-188.202 			"/>
			<polygon fill="#6795C1" points="996.111,-141.151 1036.859,-117.627 996.111,-94.102 			"/>
			<polygon fill="#46ABA4" points="996.111,-94.101 955.365,-117.626 996.111,-141.151 			"/>
			<polygon fill="#6795C1" points="996.111,-94.101 1036.859,-70.576 996.111,-47.052 			"/>
			<polygon opacity="0.5" fill="#54DECD" points="996.111,-47.051 955.365,-70.575 996.111,-94.1 			"/>
			<polygon fill="#6CBAD4" points="955.365,-211.729 996.111,-188.204 955.365,-164.679 			"/>
			<polygon fill="#6CBAD4" points="955.365,-164.678 914.617,-188.203 955.365,-211.729 			"/>
			<polygon fill="#6CBAD4" points="955.365,-164.678 996.111,-141.153 955.365,-117.628 			"/>
			<polygon fill="#6795C1" points="955.365,-117.627 914.617,-141.152 955.365,-164.678 			"/>
			<polygon fill="#6CBAD4" points="955.365,-117.627 996.111,-94.103 955.365,-70.578 			"/>
			<polygon fill="#6795C1" points="955.365,-70.577 914.617,-94.102 955.365,-117.626 			"/>
			<polygon opacity="0.7" fill="#6795C1" points="955.365,-70.577 996.111,-47.052 955.365,-23.527 			"/>
			<polygon fill="#6CBAD4" points="955.365,-23.526 914.617,-47.051 955.365,-70.576 			"/>
			<polygon fill="#6795C1" points="914.598,-235.254 955.346,-211.729 914.598,-188.204 			"/>
			<polygon opacity="0.5" fill="#54DECD" points="914.598,-188.203 873.852,-211.728 914.598,-235.253 			"/>
			<polygon opacity="0.5" fill="#54DECD" points="914.598,-188.203 955.346,-164.678 914.598,-141.152 			"/>
			<polygon fill="#6795C1" points="914.598,-141.151 873.852,-164.677 914.598,-188.202 			"/>
			<polygon fill="#6CBAD4" points="914.598,-141.151 955.346,-117.627 914.598,-94.102 			"/>
			<polygon opacity="0.5" fill="#54DECD" points="914.598,-94.101 873.852,-117.626 914.598,-141.151 			"/>
			<polygon opacity="0.7" fill="#6CBAD4" points="914.598,-94.101 955.346,-70.576 914.598,-47.052 			"/>
			<polygon opacity="0.7" fill="#6CBAD4" points="914.598,-47.05 955.346,-23.525 914.598,-0.001 			"/>
			<polygon fill="#6CBAD4" points="914.598,-47.051 873.852,-70.575 914.598,-94.1 			"/>
			<polygon fill="#6CBAD4" points="873.852,-211.729 914.598,-188.204 873.852,-164.679 			"/>
			<polygon opacity="0.7" fill="#6CBAD4" points="873.852,-164.678 914.598,-141.153 873.852,-117.628 			"/>
			<polygon fill="#6CBAD4" points="873.873,-117.626 833.127,-141.151 873.873,-164.677 			"/>
			<polygon opacity="0.2" fill="#54DECD" points="873.852,-117.627 914.598,-94.103 873.852,-70.578 			"/>
			<polygon opacity="0.5" fill="#54DECD" points="873.852,-70.577 914.598,-47.052 873.852,-23.527 			"/>
			<polygon fill="#6CBAD4" points="873.852,-23.526 833.104,-47.051 873.852,-70.576 			"/>
			<polygon opacity="0.5" fill="#54DECD" points="833.127,-235.254 873.873,-211.729 833.127,-188.204 			"/>
			<polygon opacity="0.2" fill="#54DECD" points="833.127,-188.203 792.379,-211.728 833.127,-235.253 			"/>
			<polygon opacity="0.2" fill="#54DECD" points="833.127,-188.203 873.873,-164.678 833.127,-141.152 			"/>
			<polygon opacity="0.5" fill="#54DECD" points="833.127,-141.151 873.873,-117.627 833.127,-94.102 			"/>
			<polygon fill="#6CBAD4" points="833.127,-94.101 792.379,-117.626 833.127,-141.151 			"/>
			<polygon opacity="0.7" fill="#6CBAD4" points="833.127,-94.101 873.873,-70.576 833.127,-47.052 			"/>
			<polygon opacity="0.7" fill="#6CBAD4" points="833.127,-47.05 873.873,-23.525 833.127,-0.001 			"/>
			<polygon fill="#6CBAD4" points="833.127,-47.051 792.379,-70.575 833.127,-94.1 			"/>
			<polygon fill="#6CBAD4" points="792.379,-164.678 751.633,-188.203 792.379,-211.729 			"/>
			<polygon opacity="0.7" fill="#6CBAD4" points="792.379,-70.577 833.127,-47.052 792.379,-23.527 			"/>
			<polygon opacity="0.7" fill="#6CBAD4" points="751.65,-94.101 792.396,-70.575 751.65,-47.051 			"/>
			<polygon opacity="0.2" fill="#54DECD" points="751.65,235.254 710.902,211.729 751.65,188.205 			"/>
			<polygon opacity="0.5" fill="#54DECD" points="751.65,235.254 792.396,258.779 751.65,282.304 			"/>
			<polygon opacity="0.7" fill="#6CBAD4" points="751.65,282.305 710.902,258.78 751.65,235.255 			"/>
			<polygon opacity="0.7" fill="#6CBAD4" points="751.65,282.305 792.396,305.83 751.65,329.354 			"/>
			<polygon opacity="0.7" fill="#6CBAD4" points="751.65,329.355 710.902,305.831 751.65,282.306 			"/>
			<polygon opacity="0.7" fill="#6CBAD4" points="751.65,329.355 792.396,352.881 751.65,376.405 			"/>
			<polygon opacity="0.7" fill="#6CBAD4" points="751.65,376.406 710.902,352.882 751.65,329.356 			"/>
			<polygon opacity="0.5" fill="#54DECD" points="751.65,376.406 792.396,399.932 751.65,423.457 			"/>
			<polygon opacity="0.7" fill="#6CBAD4" points="751.65,423.457 710.902,399.933 751.65,376.407 			"/>
			<polygon opacity="0.5" fill="#54DECD" points="751.65,423.457 792.396,446.982 751.65,470.508 			"/>
			<polygon opacity="0.2" fill="#54DECD" points="751.65,470.509 710.902,446.983 751.65,423.458 			"/>
			<polygon fill="#6CBAD4" points="751.65,470.509 792.396,494.033 751.65,517.559 			"/>
			<polygon opacity="0.7" fill="#6CBAD4" points="751.65,517.56 710.902,494.034 751.65,470.51 			"/>
			<polygon fill="#6CBAD4" points="751.65,517.56 792.396,541.084 751.65,564.609 			"/>
			<polygon opacity="0.7" fill="#6CBAD4" points="751.65,564.61 710.902,541.085 751.65,517.561 			"/>
			<polygon opacity="0.5" fill="#54DECD" points="751.65,564.61 792.396,588.135 751.65,611.659 			"/>
			<polygon fill="#6CBAD4" points="751.65,611.661 792.396,635.186 751.65,658.71 			"/>
			<polygon opacity="0.7" fill="#6CBAD4" points="751.65,658.711 710.902,635.187 751.65,611.662 			"/>
			<polygon fill="#6CBAD4" points="751.65,658.711 792.396,682.236 751.65,705.762 			"/>
			<polygon fill="#6CBAD4" points="751.65,705.763 792.396,729.287 751.65,752.812 			"/>
			<polygon opacity="0.2" fill="#54DECD" points="751.65,752.813 710.902,729.288 751.65,705.764 			"/>
			<polygon fill="#6CBAD4" points="751.65,752.813 792.396,776.338 751.65,799.863 			"/>
			<polygon opacity="0.7" fill="#6CBAD4" points="751.65,799.864 710.902,776.339 751.65,752.814 			"/>
			<polygon opacity="0.7" fill="#6CBAD4" points="710.902,70.575 751.65,94.101 710.902,117.626 			"/>
			<polygon opacity="0.2" fill="#54DECD" points="710.902,117.627 670.156,94.102 710.902,70.576 			"/>
			<polygon opacity="0.7" fill="#6CBAD4" points="710.902,117.627 751.65,141.151 710.902,164.677 			"/>
			<polygon opacity="0.5" fill="#54DECD" points="710.902,164.678 670.156,141.152 710.902,117.627 			"/>
			<polygon opacity="0.7" fill="#6CBAD4" points="710.902,164.678 751.65,188.202 710.902,211.727 			"/>
			<polygon opacity="0.5" fill="#54DECD" points="710.902,211.728 751.65,235.253 710.902,258.777 			"/>
			<polygon opacity="0.7" fill="#6CBAD4" points="710.902,258.778 670.156,235.254 710.902,211.729 			"/>
			<polygon opacity="0.5" fill="#54DECD" points="710.902,258.778 751.65,282.304 710.902,305.828 			"/>
			<polygon opacity="0.5" fill="#54DECD" points="710.902,305.829 670.156,282.305 710.902,258.779 			"/>
			<polygon opacity="0.2" fill="#54DECD" points="710.902,305.829 751.65,329.354 710.902,352.879 			"/>
			<polygon opacity="0.7" fill="#6CBAD4" points="710.902,352.88 670.156,329.355 710.902,305.83 			"/>
			<polygon fill="#6CBAD4" points="710.902,352.88 751.65,376.405 710.902,399.931 			"/>
			<polygon opacity="0.7" fill="#6CBAD4" points="710.902,399.931 670.155,376.406 710.902,352.881 			"/>
			<polygon opacity="0.7" fill="#6CBAD4" points="710.902,399.931 751.65,423.456 710.902,446.981 			"/>
			<polygon opacity="0.7" fill="#6CBAD4" points="710.902,446.982 670.155,423.457 710.902,399.932 			"/>
			<polygon opacity="0.7" fill="#6CBAD4" points="710.902,446.982 751.65,470.507 710.902,494.032 			"/>
			<polygon opacity="0.2" fill="#54DECD" points="710.902,494.033 670.155,470.508 710.902,446.983 			"/>
			<polygon opacity="0.5" fill="#54DECD" points="710.902,494.033 751.65,517.558 710.902,541.083 			"/>
			<polygon opacity="0.7" fill="#6CBAD4" points="710.902,541.084 751.65,564.608 710.902,588.133 			"/>
			<polygon opacity="0.5" fill="#54DECD" points="710.902,588.135 670.155,564.609 710.902,541.085 			"/>
			<polygon opacity="0.7" fill="#6CBAD4" points="710.902,635.185 670.155,611.66 710.902,588.136 			"/>
			<polygon opacity="0.5" fill="#54DECD" points="710.902,635.185 751.65,658.71 710.902,682.235 			"/>
			<polygon opacity="0.7" fill="#6CBAD4" points="710.902,682.236 670.155,658.711 710.902,635.186 			"/>
			<polygon opacity="0.7" fill="#6CBAD4" points="710.902,682.236 751.65,705.761 710.902,729.286 			"/>
			<polygon fill="#6CBAD4" points="1158.992,846.915 1118.245,823.39 1158.992,799.865 			"/>
			<polygon fill="#46ABA4" points="1158.992,893.966 1118.245,870.44 1158.992,846.916 			"/>
			<polygon fill="#46ABA4" points="1158.992,941.016 1118.245,917.491 1158.992,893.967 			"/>
			<polygon fill="#46ABA4" points="1158.992,988.067 1118.245,964.542 1158.992,941.017 			"/>
			<polygon fill="#6795C1" points="1158.992,1035.118 1118.245,1011.593 1158.992,988.068 			"/>
			<polygon fill="#6795C1" points="1118.245,823.389 1158.992,846.913 1118.245,870.438 			"/>
			<polygon fill="#6CBAD4" points="1118.245,870.439 1077.498,846.914 1118.245,823.39 			"/>
			<polygon fill="#6795C1" points="1118.245,870.439 1158.992,893.964 1118.245,917.488 			"/>
			<polygon fill="#6795C1" points="1118.245,917.489 1077.498,893.965 1118.245,870.44 			"/>
			<polygon fill="#6795C1" points="1118.245,917.489 1158.992,941.015 1118.245,964.54 			"/>
			<polygon fill="#6795C1" points="1118.245,964.541 1077.498,941.016 1118.245,917.49 			"/>
			<polygon fill="#6795C1" points="1118.245,964.541 1158.992,988.065 1118.245,1011.591 			"/>
			<polygon fill="#6795C1" points="1158.991,47.051 1199.738,23.526 1158.991,0.001 			"/>
			<polygon fill="#6795C1" points="1158.991,94.102 1199.738,70.577 1158.991,47.052 			"/>
			<polygon fill="#46ABA4" points="1158.991,141.153 1199.738,117.628 1158.991,94.103 			"/>
			<polygon fill="#46ABA4" points="1158.991,188.204 1199.738,164.679 1158.991,141.153 			"/>
			<polygon fill="#6CBAD4" points="1158.991,235.254 1199.738,211.729 1158.991,188.205 			"/>
			<polygon fill="#6795C1" points="1158.991,282.305 1199.738,258.78 1158.991,235.255 			"/>
			<polygon fill="#6795C1" points="1158.991,329.355 1199.738,305.831 1158.991,282.306 			"/>
			<polygon fill="#6CBAD4" points="1158.991,376.406 1199.738,352.882 1158.991,329.356 			"/>
			<polygon fill="#6795C1" points="1158.991,423.457 1199.738,399.933 1158.991,376.407 			"/>
			<polygon fill="#6795C1" points="1158.991,470.509 1199.738,446.983 1158.991,423.458 			"/>
			<polygon fill="#46ABA4" points="1158.991,517.56 1199.738,494.034 1158.991,470.51 			"/>
			<polygon fill="#46ABA4" points="1158.991,564.61 1199.738,541.085 1158.991,517.561 			"/>
			<polygon fill="#6CBAD4" points="1158.991,611.661 1199.738,588.136 1158.991,564.611 			"/>
			<polygon fill="#6795C1" points="1158.991,658.711 1199.738,635.187 1158.991,611.662 			"/>
			<polygon fill="#46ABA4" points="1158.991,705.763 1199.738,682.237 1158.991,658.712 			"/>
			<polygon fill="#6795C1" points="1158.991,752.813 1199.738,729.288 1158.991,705.764 			"/>
			<polygon fill="#6795C1" points="1158.991,799.864 1199.738,776.339 1158.991,752.814 			"/>
			<polygon fill="#46ABA4" points="1199.738,-23.526 1158.991,-0.001 1199.738,23.523 			"/>
			<polygon fill="#46ABA4" points="1199.738,23.524 1158.991,47.05 1199.738,70.574 			"/>
			<polygon fill="#6CBAD4" points="1199.738,70.575 1158.991,94.101 1199.738,117.626 			"/>
			<polygon fill="#6795C1" points="1199.738,117.627 1158.991,141.151 1199.738,164.677 			"/>
			<polygon fill="#6795C1" points="1199.738,164.678 1158.991,188.202 1199.738,211.727 			"/>
			<polygon fill="#46ABA4" points="1199.738,211.728 1158.991,235.253 1199.738,258.777 			"/>
			<polygon fill="#6CBAD4" points="1199.738,258.778 1158.991,282.304 1199.738,305.828 			"/>
			<polygon fill="#46ABA4" points="1199.738,305.829 1158.991,329.354 1199.738,352.879 			"/>
			<polygon fill="#46ABA4" points="1199.738,352.88 1158.991,376.405 1199.738,399.931 			"/>
			<polygon fill="#46ABA4" points="1199.738,399.931 1158.991,423.456 1199.738,446.981 			"/>
			<polygon fill="#6CBAD4" points="1199.738,446.982 1158.991,470.507 1199.738,494.032 			"/>
			<polygon fill="#6795C1" points="1199.738,494.033 1158.991,517.558 1199.738,541.083 			"/>
			<polygon fill="#6795C1" points="1199.738,541.084 1158.991,564.608 1199.738,588.133 			"/>
			<polygon fill="#46ABA4" points="1199.738,588.135 1158.991,611.659 1199.738,635.184 			"/>
			<polygon fill="#6CBAD4" points="1199.738,635.185 1158.991,658.71 1199.738,682.235 			"/>
			<polygon fill="#6795C1" points="1199.738,682.236 1158.991,705.761 1199.738,729.286 			"/>
			<polygon fill="#46ABA4" points="1199.738,729.287 1158.991,752.812 1199.738,776.337 			"/>
			<polygon fill="#46ABA4" points="1199.738,776.338 1158.991,799.862 1199.738,823.388 			"/>
			<polygon fill="#46ABA4" points="1158.991,-188.203 1199.738,-211.728 1158.991,-235.253 			"/>
			<polygon fill="#46ABA4" points="1158.991,-141.151 1199.738,-164.677 1158.991,-188.202 			"/>
			<polygon fill="#6CBAD4" points="1158.991,-94.101 1199.738,-117.626 1158.991,-141.151 			"/>
			<polygon fill="#6795C1" points="1158.991,-47.051 1199.738,-70.575 1158.991,-94.1 			"/>
			<polygon fill="#6795C1" points="1199.738,-211.729 1158.991,-188.204 1199.738,-164.679 			"/>
			<polygon fill="#6795C1" points="1199.738,-164.678 1158.991,-141.153 1199.738,-117.628 			"/>
			<polygon fill="#46ABA4" points="1199.738,-117.627 1158.991,-94.103 1199.738,-70.578 			"/>
			<polygon fill="#6CBAD4" points="1199.738,-70.577 1158.991,-47.052 1199.738,-23.527 			"/>
			<polygon fill="#6CBAD4" points="1158.991,846.915 1199.738,823.39 1158.991,799.865 			"/>
			<polygon fill="#46ABA4" points="1158.991,893.966 1199.738,870.44 1158.991,846.916 			"/>
			<polygon fill="#46ABA4" points="1158.991,941.016 1199.738,917.491 1158.991,893.967 			"/>
			<polygon fill="#46ABA4" points="1158.991,988.067 1199.738,964.542 1158.991,941.017 			"/>
			<polygon fill="#6795C1" points="1158.991,1035.118 1199.738,1011.593 1158.991,988.068 			"/>
			<polygon fill="#6795C1" points="1199.738,823.389 1158.991,846.913 1199.738,870.438 			"/>
			<polygon fill="#6795C1" points="1199.738,870.439 1158.991,893.964 1199.738,917.488 			"/>
			<polygon fill="#6795C1" points="1199.738,917.489 1158.991,941.015 1199.738,964.54 			"/>
			<polygon fill="#6795C1" points="1199.738,964.541 1158.991,988.065 1199.738,1011.591 			"/>
			<polygon fill="#6795C1" points="1118.245,1011.592 1077.498,988.066 1118.245,964.542 			"/>
			<polygon opacity="0.7" fill="#6CBAD4" points="1077.583,799.864 1118.33,823.389 1077.583,846.914 			"/>
			<polygon fill="#6795C1" points="1077.583,846.915 1036.836,823.39 1077.583,799.865 			"/>
			<polygon fill="#46ABA4" points="1077.583,846.915 1118.33,870.439 1077.583,893.964 			"/>
			<polygon fill="#6795C1" points="1077.583,893.966 1036.836,870.44 1077.583,846.916 			"/>
			<polygon fill="#46ABA4" points="1077.583,893.966 1118.33,917.49 1077.583,941.015 			"/>
			<polygon fill="#6795C1" points="1077.583,941.016 1036.836,917.491 1077.583,893.967 			"/>
			<polygon fill="#46ABA4" points="1077.583,941.016 1118.33,964.541 1077.583,988.066 			"/>
			<polygon fill="#6795C1" points="1077.583,988.067 1036.836,964.542 1077.583,941.017 			"/>
			<polygon fill="#46ABA4" points="1077.583,988.067 1118.33,1011.592 1077.583,1035.117 			"/>
			<polygon fill="#6795C1" points="1077.583,1035.118 1036.836,1011.593 1077.583,988.068 			"/>
			<polygon fill="#6CBAD4" points="1036.836,823.389 1077.583,846.913 1036.836,870.438 			"/>
			<polygon fill="#6795C1" points="1036.836,870.439 996.089,846.914 1036.836,823.39 			"/>
			<polygon fill="#6CBAD4" points="1036.836,870.439 1077.583,893.964 1036.836,917.488 			"/>
			<polygon fill="#6CBAD4" points="1036.836,917.489 996.089,893.965 1036.836,870.44 			"/>
			<polygon fill="#46ABA4" points="1036.836,917.489 1077.583,941.015 1036.836,964.54 			"/>
			<polygon fill="#6CBAD4" points="1036.836,964.541 996.089,941.016 1036.836,917.49 			"/>
			<polygon fill="#6CBAD4" points="1036.836,964.541 1077.583,988.065 1036.836,1011.591 			"/>
			<polygon fill="#46ABA4" points="1036.836,1011.592 996.089,988.066 1036.836,964.542 			"/>
			<polygon fill="#6CBAD4" points="996.111,799.864 1036.858,823.389 996.111,846.914 			"/>
			<polygon opacity="0.7" fill="#6CBAD4" points="996.111,846.915 955.364,823.39 996.111,799.865 			"/>
			<polygon fill="#46ABA4" points="996.111,846.915 1036.858,870.439 996.111,893.964 			"/>
			<polygon fill="#6CBAD4" points="996.111,893.966 955.364,870.44 996.111,846.916 			"/>
			<polygon fill="#6795C1" points="996.111,893.966 1036.858,917.49 996.111,941.015 			"/>
			<polygon fill="#46ABA4" points="996.111,941.016 955.364,917.491 996.111,893.967 			"/>
			<polygon fill="#6795C1" points="996.111,941.016 1036.858,964.541 996.111,988.066 			"/>
			<polygon fill="#46ABA4" points="996.111,988.067 955.364,964.542 996.111,941.017 			"/>
			<polygon fill="#6CBAD4" points="996.111,988.067 1036.858,1011.592 996.111,1035.117 			"/>
			<polygon fill="#6795C1" points="996.111,1035.118 955.364,1011.593 996.111,988.068 			"/>
			<polygon fill="#6795C1" points="955.364,823.389 996.111,846.913 955.364,870.438 			"/>
			<polygon fill="#6CBAD4" points="955.364,870.439 914.617,846.914 955.364,823.39 			"/>
			<polygon fill="#6795C1" points="955.364,870.439 996.111,893.964 955.364,917.488 			"/>
			<polygon fill="#6CBAD4" points="955.364,917.489 914.617,893.965 955.364,870.44 			"/>
			<polygon fill="#6CBAD4" points="955.364,917.489 996.111,941.015 955.364,964.54 			"/>
			<polygon fill="#6795C1" points="955.364,964.541 914.617,941.016 955.364,917.49 			"/>
			<polygon fill="#6CBAD4" points="955.364,964.541 996.111,988.065 955.364,1011.591 			"/>
			<polygon fill="#6795C1" points="955.364,1011.592 914.617,988.066 955.364,964.542 			"/>
			<polygon opacity="0.7" fill="#6CBAD4" points="914.598,799.864 955.345,823.389 914.598,846.914 			"/>
			<polygon fill="#6CBAD4" points="914.598,846.915 873.851,823.39 914.598,799.865 			"/>
			<polygon fill="#6795C1" points="914.598,846.915 955.345,870.439 914.598,893.964 			"/>
			<polygon fill="#46ABA4" points="914.598,893.966 873.851,870.44 914.598,846.916 			"/>
			<polygon opacity="0.7" fill="#6CBAD4" points="914.598,893.966 955.345,917.49 914.598,941.015 			"/>
			<polygon opacity="0.5" fill="#54DECD" points="914.598,941.016 873.851,917.491 914.598,893.967 			"/>
			<polygon opacity="0.7" fill="#6CBAD4" points="914.598,941.016 955.345,964.541 914.598,988.066 			"/>
			<polygon fill="#6CBAD4" points="914.598,988.067 873.851,964.542 914.598,941.017 			"/>
			<polygon fill="#6CBAD4" points="914.598,988.067 955.345,1011.592 914.598,1035.117 			"/>
			<polygon opacity="0.7" fill="#6CBAD4" points="873.851,823.389 914.598,846.913 873.851,870.438 			"/>
			<polygon fill="#6795C1" points="873.851,870.439 833.104,846.914 873.851,823.39 			"/>
			<polygon fill="#6CBAD4" points="873.851,870.439 914.598,893.964 873.851,917.488 			"/>
			<polygon opacity="0.5" fill="#54DECD" points="873.851,917.489 833.104,893.965 873.851,870.44 			"/>
			<polygon opacity="0.7" fill="#6CBAD4" points="873.851,917.489 914.598,941.015 873.851,964.54 			"/>
			<polygon fill="#6CBAD4" points="873.851,964.541 833.104,941.016 873.851,917.49 			"/>
			<polygon opacity="0.5" fill="#54DECD" points="873.851,964.541 914.598,988.065 873.851,1011.591 			"/>
			<polygon fill="#6CBAD4" points="873.851,1011.592 833.104,988.066 873.851,964.542 			"/>
			<polygon fill="#6CBAD4" points="833.127,799.864 873.873,823.389 833.127,846.914 			"/>
			<polygon opacity="0.5" fill="#54DECD" points="833.127,846.915 792.379,823.39 833.127,799.865 			"/>
			<polygon fill="#6CBAD4" points="833.127,846.915 873.873,870.439 833.126,893.964 			"/>
			<polygon opacity="0.5" fill="#54DECD" points="833.126,893.966 792.379,870.44 833.127,846.916 			"/>
			<polygon fill="#46ABA4" points="833.126,893.966 873.873,917.49 833.126,941.015 			"/>
			<polygon opacity="0.7" fill="#6CBAD4" points="833.126,941.016 792.379,917.491 833.126,893.967 			"/>
			<polygon opacity="0.5" fill="#54DECD" points="833.126,941.016 873.873,964.541 833.126,988.066 			"/>
			<polygon opacity="0.7" fill="#6CBAD4" points="833.126,988.067 873.873,1011.592 833.126,1035.117 			"/>
			<polygon fill="#6CBAD4" points="833.126,1035.118 792.379,1011.593 833.126,988.068 			"/>
			<polygon opacity="0.7" fill="#6CBAD4" points="792.379,823.389 833.127,846.913 792.379,870.438 			"/>
			<polygon fill="#6CBAD4" points="792.379,917.489 751.632,893.965 792.379,870.44 			"/>
			<polygon fill="#6CBAD4" points="792.379,917.489 833.126,941.015 792.379,964.54 			"/>
			<polygon opacity="0.5" fill="#54DECD" points="792.379,964.541 751.632,941.016 792.379,917.49 			"/>
			<polygon opacity="0.7" fill="#6CBAD4" points="792.379,964.541 833.126,988.065 792.379,1011.591 			"/>
			<polygon opacity="0.2" fill="#54DECD" points="792.379,1011.592 751.632,988.066 792.379,964.542 			"/>
			<polygon fill="#6CBAD4" points="751.65,799.864 792.396,823.389 751.65,846.914 			"/>
			<polygon opacity="0.5" fill="#54DECD" points="751.65,846.915 792.396,870.439 751.649,893.964 			"/>
			<polygon opacity="0.7" fill="#6CBAD4" points="751.649,941.016 710.902,917.491 751.649,893.967 			"/>
			<polygon opacity="0.7" fill="#6CBAD4" points="710.902,823.389 751.65,846.913 710.902,870.438 			"/>
			<polygon opacity="0.5" fill="#54DECD" points="710.902,729.287 670.155,705.762 710.902,682.237 			"/>
			<polygon opacity="0.7" fill="#6CBAD4" points="710.902,776.338 670.155,752.812 710.902,729.288 			"/>
			<polygon opacity="0.2" fill="#54DECD" points="670.137,141.153 710.885,164.678 670.137,188.203 			"/>
			<polygon opacity="0.7" fill="#6CBAD4" points="670.137,188.204 710.885,211.729 670.137,235.253 			"/>
			<polygon opacity="0.2" fill="#54DECD" points="670.137,235.254 710.885,258.779 670.137,282.304 			"/>
			<polygon opacity="0.7" fill="#6CBAD4" points="670.137,282.305 629.391,258.78 670.137,235.255 			"/>
			<polygon opacity="0.5" fill="#54DECD" points="670.137,329.355 629.391,305.831 670.137,282.306 			"/>
			<polygon opacity="0.2" fill="#54DECD" points="670.137,329.355 710.885,352.881 670.137,376.405 			"/>
			<polygon opacity="0.5" fill="#54DECD" points="670.137,376.406 629.39,352.882 670.137,329.356 			"/>
			<polygon opacity="0.2" fill="#54DECD" points="670.137,376.406 710.885,399.932 670.137,423.457 			"/>
			<polygon opacity="0.5" fill="#54DECD" points="670.137,423.457 629.39,399.933 670.137,376.407 			"/>
			<polygon opacity="0.5" fill="#54DECD" points="670.137,423.457 710.885,446.982 670.137,470.508 			"/>
			<polygon opacity="0.2" fill="#54DECD" points="670.137,470.509 629.39,446.983 670.137,423.458 			"/>
			<polygon opacity="0.7" fill="#6CBAD4" points="670.137,470.509 710.885,494.033 670.137,517.559 			"/>
			<polygon opacity="0.2" fill="#54DECD" points="670.137,517.56 710.885,541.084 670.137,564.609 			"/>
			<polygon opacity="0.7" fill="#6CBAD4" points="670.137,564.61 629.39,541.085 670.137,517.561 			"/>
			<polygon opacity="0.5" fill="#54DECD" points="670.137,611.661 629.39,588.136 670.137,564.611 			"/>
			<polygon opacity="0.2" fill="#54DECD" points="670.137,611.661 710.885,635.186 670.137,658.71 			"/>
			<polygon opacity="0.7" fill="#6CBAD4" points="629.391,117.627 670.137,141.151 629.391,164.677 			"/>
			<polygon opacity="0.7" fill="#6CBAD4" points="629.391,164.678 670.137,188.202 629.391,211.727 			"/>
			<polygon opacity="0.5" fill="#54DECD" points="629.391,211.728 670.137,235.253 629.391,258.777 			"/>
			<polygon opacity="0.2" fill="#54DECD" points="629.391,258.778 670.137,282.304 629.391,305.828 			"/>
			<polygon opacity="0.2" fill="#54DECD" points="629.39,352.88 588.643,329.355 629.391,305.83 			"/>
			<polygon opacity="0.2" fill="#54DECD" points="629.39,352.88 670.137,376.405 629.39,399.931 			"/>
			<polygon opacity="0.2" fill="#54DECD" points="629.39,399.931 670.137,423.456 629.39,446.981 			"/>
			<polygon opacity="0.5" fill="#54DECD" points="629.39,446.982 588.643,423.457 629.39,399.932 			"/>
			<polygon opacity="0.5" fill="#54DECD" points="629.39,446.982 670.137,470.507 629.39,494.032 			"/>
			<polygon opacity="0.7" fill="#6CBAD4" points="629.39,494.033 588.643,470.508 629.39,446.983 			"/>
			<polygon opacity="0.2" fill="#54DECD" points="629.39,494.033 670.137,517.558 629.39,541.083 			"/>
			<polygon opacity="0.7" fill="#6CBAD4" points="629.39,541.084 588.643,517.559 629.39,494.034 			"/>
			<polygon opacity="0.5" fill="#54DECD" points="629.39,588.135 588.643,564.609 629.39,541.085 			"/>
			<polygon opacity="0.2" fill="#54DECD" points="629.39,635.185 588.643,611.66 629.39,588.136 			"/>
			<polygon opacity="0.5" fill="#54DECD" points="629.39,635.185 670.137,658.71 629.39,682.235 			"/>
			<polygon opacity="0.7" fill="#6CBAD4" points="588.613,235.254 547.867,211.729 588.613,188.205 			"/>
			<polygon opacity="0.5" fill="#54DECD" points="588.613,235.254 629.361,258.779 588.613,282.304 			"/>
			<polygon opacity="0.5" fill="#54DECD" points="588.613,282.305 629.361,305.83 588.613,329.354 			"/>
			<polygon opacity="0.2" fill="#54DECD" points="588.613,329.355 547.867,305.831 588.613,282.306 			"/>
			<polygon opacity="0.5" fill="#54DECD" points="588.613,329.355 629.36,352.881 588.613,376.405 			"/>
			<polygon opacity="0.2" fill="#54DECD" points="588.613,376.406 629.36,399.932 588.613,423.457 			"/>
			<polygon opacity="0.5" fill="#54DECD" points="588.613,470.509 547.867,446.983 588.613,423.458 			"/>
			<polygon opacity="0.5" fill="#54DECD" points="588.613,470.509 629.36,494.033 588.613,517.559 			"/>
			<polygon opacity="0.5" fill="#54DECD" points="588.613,517.56 547.867,494.034 588.613,470.51 			"/>
			<polygon opacity="0.5" fill="#54DECD" points="547.867,352.88 507.119,329.355 547.867,305.83 			"/>
			<polygon opacity="0.5" fill="#54DECD" points="547.867,352.88 588.613,376.405 547.867,399.931 			"/>
			<polygon opacity="0.2" fill="#54DECD" points="547.867,399.931 507.119,376.406 547.867,352.881 			"/>
			<polygon opacity="0.2" fill="#54DECD" points="547.867,399.931 588.613,423.456 547.867,446.981 			"/>
			<polygon opacity="0.5" fill="#54DECD" points="547.867,494.033 507.119,470.508 547.867,446.983 			"/>
			<polygon opacity="0.2" fill="#54DECD" points="547.867,588.135 507.119,564.609 547.867,541.085 			"/>
		</g>
	</g>
</g>
<g id="objects">
</g>
</svg>
